Coordinates
version=1
nRows=8
nColumns=34
inDegrees=yes

Units are S.I. units (second, meters, Newtons, ...)
If the header above contains a line with 'inDegrees', this indicates whether rotational values are in degrees (yes) or radians (no).

endheader
time	pelvis_tilt	pelvis_list	pelvis_rotation	pelvis_tx	pelvis_ty	pelvis_tz	hip_flexion_r	hip_adduction_r	hip_rotation_r	knee_angle_r	ankle_angle_r	subtalar_angle_r	mtp_angle_r	hip_flexion_l	hip_adduction_l	hip_rotation_l	knee_angle_l	ankle_angle_l	subtalar_angle_l	mtp_angle_l	lumbar_extension	lumbar_bending	lumbar_rotation	arm_flex_r	arm_add_r	arm_rot_r	elbow_flex_r	pro_sup_r	arm_flex_l	arm_add_l	arm_rot_l	elbow_flex_l	pro_sup_l
      3.90000000	     -9.46930818	      0.29517747	      0.60902444	      0.87392560	      0.82751354	     -0.19583482	     40.64977790	     -9.91352057	     -3.64638209	     57.26872578	     32.31576043	     -0.34229465	      0.00000000	     42.48775463	    -10.02152431	     -1.88375932	     58.85832429	     32.26082489	     -3.95283531	      0.00000000	    -14.42012406	     -1.29072794	     -0.16697337	     29.77975712	    -22.02880510	     31.00274346	     74.89759935	     86.61749773	     42.11590688	    -17.22091856	     30.52496959	     83.61034345	     83.21400233
      3.91666670	    -10.08162828	      0.05463657	      0.72406999	      0.86140106	      0.80707382	     -0.19136423	     45.60028338	    -10.58954793	     -3.87385050	     63.53353001	     35.72743748	      1.92515292	      0.00000000	     47.73378039	    -10.94087116	     -1.31622859	     65.13280722	     35.48977994	     -2.74766712	      0.00000000	    -17.07561731	     -1.41652131	      0.59523439	     34.88157377	    -22.02202210	     30.26451810	     79.31635125	     88.52412749	     47.42556446	    -15.52932019	     31.57506750	     86.43460964	     83.53556159
      3.93333330	    -11.13221046	      0.02266335	      0.69289737	      0.84977371	      0.79427059	     -0.19524703	     49.90824880	    -11.35230306	     -4.12462178	     67.45903578	     37.05020816	      3.83555766	      0.00000000	     52.13981827	    -11.41991056	     -1.00797813	     69.13826057	     36.93873169	     -1.37266107	      0.00000000	    -19.03720652	     -1.58992925	      0.85044624	     40.53699226	    -22.31895674	     30.39576001	     82.89254632	     89.38866435	     52.20837476	    -14.18875970	     32.45942943	     88.93069942	     83.73875608
      3.95000000	    -12.25459921	      0.19560004	      0.54633601	      0.83611705	      0.77915653	     -0.20163192	     53.65971640	    -12.20264677	     -3.94764682	     70.00083936	     37.48058728	      5.18579794	      0.00000000	     56.01282210	    -11.59638226	     -1.13639744	     71.98729108	     37.56833590	     -0.71614085	      0.00000000	    -20.50431623	     -1.55494542	      1.19573511	     46.72778423	    -23.18480455	     30.83773361	     88.83258380	     90.74239053	     56.15993322	    -12.46598541	     33.13284597	     92.06175680	     84.00191228
      3.96666670	    -13.26583041	      0.33429742	      0.49702475	      0.82600700	      0.77559527	     -0.20492888	     56.10711812	    -12.84370131	     -3.91323655	     70.60805376	     36.84394932	      6.02678399	      0.00000000	     58.50983047	    -11.49750718	     -1.31961713	     73.01320786	     36.95944818	     -0.12992976	      0.00000000	    -22.10786531	     -1.48432884	      1.46496708	     52.26751620	    -23.77131687	     32.30298552	     93.97196559	     93.62299354	     60.46877569	    -11.48328264	     34.48337138	     94.88418499	     84.57881031
      3.98333330	    -14.64067705	      0.64227295	      0.33450810	      0.81709408	      0.76670658	     -0.20650026	     58.74739151	    -13.30998736	     -3.42384029	     71.21411403	     36.17610184	      6.29440481	      0.00000000	     60.96759160	    -11.29979857	     -1.66997902	     73.50674577	     36.73452784	      0.49708216	      0.00000000	    -22.52557345	     -1.98120448	      0.74896830	     57.48894246	    -23.27821249	     33.52202742	     97.41603492	     94.58084108	     66.18544007	    -12.16913134	     35.77393227	     97.44612964	     84.84199739
      4.00000000	    -15.77086279	      0.83062655	     -0.09446967	      0.80965972	      0.75843823	     -0.20989204	     61.12843867	    -13.46767021	     -2.93036523	     71.76371417	     35.50097763	      6.08687924	      0.00000000	     63.19985887	    -11.24010814	     -1.80227354	     74.33125456	     36.57543756	      0.47878149	      0.00000000	    -22.66909017	     -2.22151702	      0.16460371	     64.06347661	    -23.43887919	     35.19889821	    100.52577699	     95.52989616	     72.35997590	    -13.33641180	     36.92484069	     99.38797757	     85.05928841
      4.01666670	    -16.62827518	      1.09897563	     -0.51827417	      0.80141567	      0.76028467	     -0.21189295	     62.65039331	    -13.41998707	     -2.33487560	     71.41402551	     34.45471914	      6.05617173	      0.00000000	     64.52850939	    -11.02486178	     -1.97684354	     74.17650191	     35.75747483	      0.13092428	      0.00000000	    -22.84182281	     -2.37601360	     -0.93232685	     68.73252795	    -22.26931790	     34.06214424	     98.96525409	     96.21649638	     78.53670924	    -15.12932910	     38.29471993	     99.33591892	     85.12495630
